<?xml version="1.0" encoding="UTF-8"?><svg id="Layer_1" xmlns="http://www.w3.org/2000/svg" viewBox="0 0 71.54 65.5"><g><path d="M14.34,36.1c-.7,0-1.4-.4-1.9-1-1.7-2.5-2.6-5.4-2.6-8.5,0-8.4,6.8-15.3,15.3-15.3,5.2,0,10,2.6,12.8,7,.7,1,.4,2.4-.7,3.1-1,.7-2.4,.4-3.1-.7-2-3.1-5.4-4.9-9.1-4.9-5.9,0-10.8,4.8-10.8,10.8,0,2.1,.6,4.2,1.8,6,.7,1,.4,2.4-.6,3.1-.2,.3-.6,.4-1.1,.4Z"/><path d="M25.24,9.2c-1.2,0-2.2-1-2.2-2.2V2.2c0-1.2,1-2.2,2.2-2.2s2.2,1,2.2,2.2V7c0,1.2-1,2.2-2.2,2.2Z"/><path d="M6.74,21.9c-.3,0-.5,0-.8-.1l-4.5-1.7c-1.2-.4-1.7-1.7-1.3-2.9,.4-1.2,1.7-1.7,2.9-1.3l4.5,1.7c1.2,.4,1.7,1.7,1.3,2.9-.3,.8-1.2,1.4-2.1,1.4Z"/><g><path d="M41.34,17.6c-.7,0-1.4-.3-1.8-1-.7-1-.5-2.4,.5-3.1l3.9-2.8c1-.7,2.4-.5,3.1,.5,.7,1,.5,2.4-.5,3.1l-3.9,2.8c-.4,.3-.8,.5-1.3,.5Z"/><path d="M5.14,43.1c-.7,0-1.4-.3-1.8-1-.7-1-.5-2.4,.5-3.1l3.9-2.8c1-.7,2.4-.5,3.1,.5,.7,1,.5,2.4-.5,3.1l-3.9,2.8c-.4,.3-.9,.5-1.3,.5Z"/></g></g><path d="M55.54,65.5H19.44c-6.7,0-12.2-5.5-12.2-12.2s5.5-12.2,12.2-12.2c.4,0,7.9,.3,11.2,6.1,.6,1.1,.2,2.5-.8,3.1-1.1,.6-2.5,.2-3.1-.8-2.1-3.6-7.3-3.8-7.3-3.8-4.2,0-7.6,3.5-7.6,7.7s3.5,7.7,7.7,7.7H55.64c6.3,0,11.4-5.1,11.4-11.4s-5.1-11.4-11.4-11.4h-1.5c-1.2,0-2.2-1-2.2-2.2s1-2.2,2.2-2.2h1.5c8.8,0,15.9,7.1,15.9,15.9-.1,8.6-7.2,15.7-16,15.7Z"/><path d="M54.04,45.9h0c-1.2,0-2.3-1-2.2-2.3,0-1.9-.4-3.8-1.1-5.5-2.2-5.2-7.3-8.5-13-8.5-7.8,0-14.1,6.3-14.1,14.1,0,1.2-1,2.2-2.2,2.2s-2.2-1-2.2-2.2c0-10.3,8.3-18.6,18.6-18.6,7.4,0,14.2,4.4,17.1,11.3,1,2.3,1.5,4.8,1.5,7.3-.1,1.2-1.2,2.2-2.4,2.2Z"/></svg>