<?xml version="1.0" encoding="UTF-8"?><svg id="Layer_1" xmlns="http://www.w3.org/2000/svg" viewBox="0 0 48.01 58"><path d="M45.88,29.41c-.07-13.67-9.6-24.44-21.94-24.99V1c0-.55-.45-1-1-1s-1,.45-1,1v3.42C9.6,4.97,.07,15.74,0,29.41H0v.14c0,.09,.03,.16,.05,.24H.05c.11,.43,.48,.76,.95,.76,.44,0,.8-.29,.94-.69,.68-1.27,2-2.06,3.45-2.06s2.83,.82,3.5,2.13c.03,.05,.06,.09,.1,.14,.02,.02,.03,.05,.05,.07,.08,.09,.17,.16,.27,.22,.01,0,.01,0,.02,.02,.02,0,.03,0,.05,0,.09,.04,.18,.07,.28,.08,.03,0,.05,0,.08,0,.02,0,.03,0,.04,0,.09,0,.19-.02,.28-.05,.02,0,.04-.02,.06-.02,.04,0,.07-.02,.11-.04,.03-.02,.05-.05,.08-.07,.06-.04,.11-.08,.16-.13s.09-.1,.12-.16c.02-.03,.05-.05,.07-.09,.67-1.32,2.01-2.13,3.5-2.13s2.83,.82,3.5,2.13c.03,.05,.06,.09,.1,.14,.02,.02,.03,.04,.05,.06,.08,.09,.17,.16,.27,.22,.01,0,.01,0,.02,.02,.02,0,.03,0,.05,0,.09,.04,.18,.07,.28,.08,.03,0,.05,0,.08,0,.01,0,.03,0,.04,0,.09,0,.19-.02,.28-.05,.02,0,.04,0,.06-.02,.04,0,.08-.02,.11-.04s.06-.05,.09-.07c.06-.04,.11-.08,.16-.12,.05-.05,.09-.1,.13-.16,.02-.03,.05-.05,.07-.08,.52-1.01,1.43-1.72,2.5-2v25.77c0,1.26-1.03,2.29-2.29,2.29h-1.1c-1.26,0-2.29-1.03-2.29-2.29v-2.2c0-.55-.45-1-1-1s-1,.45-1,1v2.2c0,2.37,1.92,4.29,4.29,4.29h1.1c2.37,0,4.29-1.93,4.29-4.29V27.94c1.07,.28,1.98,.99,2.5,2,.03,.05,.06,.09,.1,.14,.02,.02,.03,.05,.05,.07,.08,.09,.17,.16,.27,.22,0,0,0,0,.02,.02,.02,0,.03,0,.05,0,.09,.04,.18,.07,.28,.08,.03,0,.05,0,.08,0,.02,0,.03,0,.04,0,.09,0,.19-.02,.28-.05,.02,0,.04-.02,.06-.02,.04,0,.07-.02,.11-.04,.03-.02,.05-.05,.08-.07,.06-.04,.11-.08,.16-.13s.09-.1,.12-.16c.02-.03,.05-.05,.07-.09,.67-1.32,2.01-2.13,3.5-2.13s2.83,.82,3.5,2.13c.03,.05,.06,.09,.1,.14,.02,.02,.03,.04,.05,.06,.08,.09,.17,.16,.27,.22,0,0,0,0,.02,.02,.02,0,.03,0,.05,0,.09,.04,.18,.07,.28,.08,.03,0,.05,0,.08,0,0,0,.03,0,.04,0,.09,0,.19-.02,.28-.05,.02,0,.04-.02,.06-.02,.04,0,.07-.02,.11-.04,.03-.02,.05-.05,.09-.07,.06-.04,.11-.08,.16-.12,.05-.05,.09-.1,.13-.16,.02-.03,.05-.05,.07-.08,.67-1.32,2.01-2.13,3.5-2.13s2.77,.79,3.45,2.06c.13,.4,.5,.69,.94,.69,.47,0,.84-.33,.95-.76h0c.02-.08,.05-.16,.05-.24-.02-.07-.02-.11-.02-.16h0Zm-5.39-3.61c-1.71,0-3.28,.72-4.39,1.94-1.1-1.22-2.68-1.94-4.39-1.94s-3.28,.72-4.39,1.94c-1.1-1.22-2.68-1.94-4.39-1.94s-3.28,.72-4.39,1.94c-1.1-1.22-2.68-1.94-4.39-1.94s-3.28,.72-4.39,1.94c-1.1-1.22-2.68-1.94-4.39-1.94-1.18,0-2.3,.35-3.24,.97C3.34,15.14,12.03,6.39,22.92,6.39s19.59,8.75,20.79,20.38c-.92-.62-2.04-.97-3.22-.97Z"/><path d="M44.74,.48c-.36-.6-1.35-.6-1.71,0-.54,.9-3.26,5.48-3.26,7.39,0,2.27,1.85,4.13,4.12,4.13s4.12-1.85,4.12-4.13c-.01-1.9-2.73-6.49-3.27-7.39Zm-.86,9.52c-1.17,0-2.12-.95-2.12-2.13,0-.78,1.06-2.98,2.12-4.88,1.13,2.04,2.12,4.17,2.12,4.89,0,1.17-.95,2.12-2.12,2.12Z"/><path d="M35.91,8c1.58,0,2.87-1.29,2.87-2.88,0-1.19-1.41-3.64-2.01-4.64-.19-.3-.51-.48-.86-.48s-.67,.18-.86,.48c-.61,1-2.01,3.46-2.01,4.64,0,1.59,1.28,2.88,2.87,2.88Zm0-4.96c.5,.96,.86,1.8,.87,2.09,0,.48-.39,.87-.87,.87s-.87-.39-.87-.87c0-.29,.36-1.12,.87-2.09Z"/></svg>