<?xml version="1.0" encoding="UTF-8"?><svg id="Layer_1" xmlns="http://www.w3.org/2000/svg" viewBox="0 0 90.05 74.74"><path d="M70.93,48.65q-.37,0-55.35,0c-8.61-.18-15.57-7.22-15.57-15.7s7.12-15.71,15.86-15.71c.89,0,1.78,.07,2.66,.22C21.55,7.21,31.1,0,42.11,0c8.88,0,17.02,4.75,21.36,12.29,2.35-.98,4.89-1.5,7.45-1.5,10.54,0,19.12,8.49,19.12,18.93s-8.58,18.93-19.12,18.93ZM15.86,21.93c-6.16,0-11.17,4.94-11.17,11.01s4.9,10.88,10.93,11q54.94,0,55.31,0c7.96,0,14.43-6.39,14.43-14.24s-6.47-14.24-14.43-14.24c-2.57,0-5.1,.68-7.31,1.96-.57,.33-1.27,.41-1.9,.2s-1.15-.67-1.42-1.27c-3.19-7.1-10.33-11.69-18.19-11.69-9.59,0-17.82,6.75-19.56,16.05-.12,.67-.53,1.25-1.12,1.59-.59,.34-1.3,.42-1.94,.2-1.18-.4-2.4-.6-3.63-.6Zm15.99,32.1h-.37v-.07c0-1.3-1.28-2.35-2.57-2.35s-2.57,1.05-2.57,2.35v.07h-.37c-1.3,0-2.35,1.28-2.35,2.57s1.05,2.57,2.35,2.57h.37v.07c0,1.3,1.28,2.35,2.57,2.35s2.57-1.05,2.57-2.35v-.07h.37c1.3,0,2.35-1.28,2.35-2.57s-1.05-2.57-2.35-2.57Zm15.94,0h-.37v-.07c0-1.3-1.28-2.35-2.57-2.35s-2.57,1.05-2.57,2.35v.07h-.37c-1.3,0-2.35,1.28-2.35,2.57s1.05,2.57,2.35,2.57h.37v.07c0,1.3,1.28,2.35,2.57,2.35s2.57-1.05,2.57-2.35v-.07h.37c1.3,0,2.35-1.28,2.35-2.57s-1.05-2.57-2.35-2.57Zm15.94,0h-.37v-.07c0-1.3-1.28-2.35-2.57-2.35s-2.57,1.05-2.57,2.35v.07h-.37c-1.3,0-2.35,1.28-2.35,2.57s1.05,2.57,2.35,2.57h.37v.07c0,1.3,1.28,2.35,2.57,2.35s2.57-1.05,2.57-2.35v-.07h.37c1.3,0,2.35-1.28,2.35-2.57s-1.05-2.57-2.35-2.57Zm-15.94,13.15h-.37v-.07c0-1.3-1.28-2.35-2.57-2.35s-2.57,1.05-2.57,2.35v.07h-.37c-1.3,0-2.35,1.28-2.35,2.57s1.05,2.57,2.35,2.57h.37v.07c0,1.3,1.28,2.35,2.57,2.35s2.57-1.05,2.57-2.35v-.07h.37c1.3,0,2.35-1.28,2.35-2.57s-1.05-2.57-2.35-2.57Z"/></svg>