<?xml version="1.0" encoding="UTF-8"?><svg id="Layer_1" xmlns="http://www.w3.org/2000/svg" viewBox="0 0 73.75 73.75"><path d="M36.88,55.38c-10.2,0-18.5-8.3-18.5-18.5s8.3-18.5,18.5-18.5,18.5,8.3,18.5,18.5-8.3,18.5-18.5,18.5Zm0-33c-7.99,0-14.5,6.51-14.5,14.5s6.51,14.5,14.5,14.5,14.5-6.51,14.5-14.5-6.51-14.5-14.5-14.5Zm2-13.5V2c0-1.1-.9-2-2-2s-2,.9-2,2v6.88c0,1.1,.9,2,2,2s2-.9,2-2Zm0,62.88v-6.88c0-1.1-.9-2-2-2s-2,.9-2,2v6.88c0,1.1,.9,2,2,2s2-.9,2-2ZM10.88,36.88c0-1.1-.9-2-2-2H2c-1.1,0-2,.9-2,2s.9,2,2,2h6.88c1.1,0,2-.9,2-2Zm62.88,0c0-1.1-.9-2-2-2h-6.88c-1.1,0-2,.9-2,2s.9,2,2,2h6.88c1.1,0,2-.9,2-2ZM13.34,63.24l4.86-4.86c.78-.78,.78-2.05,0-2.83-.78-.78-2.05-.78-2.83,0l-4.86,4.86c-.78,.78-.78,2.05,0,2.83,.39,.39,.9,.59,1.41,.59s1.02-.19,1.41-.59ZM58.38,18.2l4.86-4.86c.78-.78,.78-2.05,0-2.83-.78-.78-2.05-.78-2.83,0l-4.86,4.86c-.78,.78-.78,2.05,0,2.83,.39,.39,.9,.59,1.41,.59s1.02-.19,1.41-.59Zm-40.18,0c.78-.78,.78-2.05,0-2.83l-4.86-4.86c-.78-.78-2.05-.78-2.83,0-.78,.78-.78,2.05,0,2.83l4.86,4.86c.39,.39,.9,.59,1.41,.59s1.02-.19,1.41-.59ZM63.24,63.24c.78-.78,.78-2.05,0-2.83l-4.86-4.86c-.78-.78-2.05-.78-2.83,0s-.78,2.05,0,2.83l4.86,4.86c.39,.39,.9,.59,1.41,.59s1.02-.19,1.41-.59Z"/></svg>